<svg width="16" height="16" viewBox="0 0 16 16" fill="none" xmlns="http://www.w3.org/2000/svg">
<path d="M11.3332 1.33366L13.3332 1.33366C13.6868 1.33366 14.0259 1.47413 14.276 1.72418C14.526 1.97423 14.6665 2.31337 14.6665 2.66699L14.6665 7.33366C14.6665 7.68728 14.526 8.02642 14.276 8.27647C14.0259 8.52652 13.6868 8.66699 13.3332 8.66699L11.3332 8.66699M6.6665 10.0003L6.6665 12.667C6.6665 13.1974 6.87722 13.7061 7.25229 14.0812C7.62736 14.4563 8.13607 14.667 8.6665 14.667L11.3332 8.66699L11.3332 1.33366L3.81317 1.33366C3.49162 1.33002 3.17959 1.44272 2.93457 1.65099C2.68955 1.85925 2.52805 2.14905 2.47984 2.46699L1.55984 8.46699C1.53083 8.65809 1.54372 8.8532 1.59761 9.03882C1.6515 9.22444 1.7451 9.39613 1.87193 9.54198C1.99876 9.68783 2.15578 9.80437 2.33212 9.88351C2.50846 9.96266 2.6999 10.0025 2.89317 10.0003L6.6665 10.0003Z" stroke="#475467" stroke-width="1.5" stroke-linecap="round" stroke-linejoin="round"/>
</svg>
