<svg width="16" height="16" viewBox="0 0 16 16" fill="none" xmlns="http://www.w3.org/2000/svg">
<g clip-path="url(#clip0_316_23337)">
<path d="M4.66683 14.6663H2.66683C2.31321 14.6663 1.97407 14.5259 1.72402 14.2758C1.47397 14.0258 1.3335 13.6866 1.3335 13.333L1.3335 8.66634C1.3335 8.31272 1.47397 7.97358 1.72402 7.72353C1.97407 7.47348 2.31321 7.33301 2.66683 7.33301H4.66683M9.3335 5.99967V3.33301C9.3335 2.80257 9.12278 2.29387 8.74771 1.91879C8.37264 1.54372 7.86393 1.33301 7.3335 1.33301L4.66683 7.33301L4.66683 14.6663L12.1868 14.6663C12.5084 14.67 12.8204 14.5573 13.0654 14.349C13.3105 14.1407 13.4719 13.8509 13.5202 13.533L14.4402 7.53301C14.4692 7.34191 14.4563 7.1468 14.4024 6.96118C14.3485 6.77556 14.2549 6.60387 14.1281 6.45802C14.0012 6.31216 13.8442 6.19563 13.6679 6.11649C13.4915 6.03734 13.3001 5.99749 13.1068 5.99967L9.3335 5.99967Z" stroke="#475467" stroke-width="1.5" stroke-linecap="round" stroke-linejoin="round"/>
</g>
<defs>
<clipPath id="clip0_316_23337">
<rect width="16" height="16" fill="white"/>
</clipPath>
</defs>
</svg>
