<svg width="84" height="46" viewBox="0 0 84 46" fill="none" xmlns="http://www.w3.org/2000/svg">
<path d="M23.0632 23.5022C23.3483 23.5022 23.5676 23.6345 23.7212 23.8992C23.8966 24.1639 23.9844 24.5278 23.9844 24.991C23.9844 25.8733 23.776 26.557 23.3593 27.0423C22.4161 28.2113 21.3962 29.1708 20.2995 29.9207C19.2248 30.6706 17.9965 31.0456 16.6147 31.0456C15.4522 31.0456 14.5091 30.6265 13.7853 29.7883C12.535 30.6044 11.23 31.0235 9.87011 31.0456C9.58497 35.3025 8.93793 38.8536 7.92899 41.6989C6.92004 44.5663 5.43953 46 3.48744 46C2.30303 46 1.42568 45.5699 0.85541 44.7097C0.285137 43.8495 0 42.6584 0 41.1365C0 38.9749 0.493506 36.4495 1.48052 33.56C2.46753 30.6927 3.99191 27.5275 6.05367 24.0646C6.05367 20.8444 6.03173 18.6056 5.98787 17.3484C5.96593 16.7087 6.21817 16.2014 6.74458 15.8265C7.27098 15.4515 7.92899 15.264 8.7186 15.264C9.1792 15.264 9.50821 15.3633 9.70561 15.5618C9.92494 15.7382 10.0456 16.1022 10.0675 16.6536C10.0675 17.205 10.0785 17.613 10.1004 17.8777C10.8023 16.9955 11.4932 16.3668 12.1731 15.9919C12.8531 15.5949 13.5769 15.3964 14.3446 15.3964C15.5728 15.3964 16.5708 15.8926 17.3385 16.8852C18.1281 17.8777 18.5229 19.1791 18.5229 20.7892C18.5229 21.9582 18.3365 23.0941 17.9636 24.197C17.5907 25.2998 17.0753 26.3034 16.4173 27.2077C16.8779 27.34 17.2617 27.4062 17.5688 27.4062C18.2926 27.4062 18.9835 27.1415 19.6415 26.6122C20.2995 26.0828 21.144 25.2005 22.1748 23.9654C22.4381 23.6566 22.7342 23.5022 23.0632 23.5022ZM10.0346 27.8694C10.8242 27.693 11.548 27.2628 12.206 26.5791C12.886 25.8733 13.4234 25.0131 13.8182 23.9985C14.213 22.9618 14.4104 21.881 14.4104 20.7561C14.4104 20.0944 14.2788 19.5981 14.0156 19.2673C13.7524 18.9144 13.4014 18.7379 12.9627 18.7379C12.1731 18.7379 11.219 19.5761 10.1004 21.2524C10.0785 22.2229 10.0675 23.6456 10.0675 25.5204C10.0675 26.535 10.0565 27.318 10.0346 27.8694ZM3.75064 42.7577C4.34285 42.7577 4.83635 41.4563 5.23116 38.8536C5.62596 36.273 5.8782 33.0527 5.98787 29.1928C5.04472 31.3985 4.29898 33.5049 3.75064 35.512C3.2023 37.5192 2.92813 39.2065 2.92813 40.5741C2.92813 41.2799 3.01587 41.8203 3.19134 42.1952C3.34487 42.5702 3.53131 42.7577 3.75064 42.7577Z" fill="#101828"/>
<path d="M24.2842 31.0456C22.9243 31.0456 21.8386 30.5493 21.027 29.5567C20.2155 28.5642 19.8097 27.2628 19.8097 25.6527C19.8097 23.8882 20.2155 22.2229 21.027 20.6569C21.8386 19.0688 22.9133 17.8005 24.2513 16.8521C25.6111 15.8816 27.0478 15.3964 28.5612 15.3964C29.0437 15.3964 29.3618 15.4956 29.5153 15.6941C29.6908 15.8706 29.8334 16.2014 29.943 16.6867C30.4036 16.5984 30.8862 16.5543 31.3906 16.5543C32.4654 16.5543 33.0028 16.9403 33.0028 17.7123C33.0028 18.1755 32.8383 19.2783 32.5093 21.0208C32.0048 23.5573 31.7525 25.3219 31.7525 26.3144C31.7525 26.6453 31.8293 26.9099 31.9828 27.1085C32.1583 27.307 32.3776 27.4062 32.6409 27.4062C33.0576 27.4062 33.5621 27.1415 34.1543 26.6122C34.7465 26.0608 35.5471 25.1785 36.556 23.9654C36.8192 23.6566 37.1153 23.5022 37.4443 23.5022C37.7294 23.5022 37.9488 23.6345 38.1023 23.8992C38.2778 24.1639 38.3655 24.5278 38.3655 24.991C38.3655 25.8733 38.1571 26.557 37.7404 27.0423C36.8411 28.1672 35.887 29.1156 34.8781 29.8876C33.8691 30.6596 32.8931 31.0456 31.9499 31.0456C31.2261 31.0456 30.5572 30.8029 29.943 30.3177C29.3508 29.8104 28.9012 29.1266 28.5941 28.2664C27.4536 30.1192 26.0169 31.0456 24.2842 31.0456ZM25.4686 27.704C25.9511 27.704 26.4117 27.4172 26.8504 26.8438C27.2891 26.2703 27.6071 25.5093 27.8045 24.5609L29.0218 18.4733C28.1006 18.4953 27.2452 18.8482 26.4556 19.532C25.6879 20.1937 25.0738 21.0759 24.6132 22.1788C24.1526 23.2816 23.9223 24.4506 23.9223 25.6858C23.9223 26.3696 24.0539 26.8769 24.3171 27.2077C24.6022 27.5386 24.986 27.704 25.4686 27.704Z" fill="#101828"/>
<path d="M52.1637 23.5022C52.4488 23.5022 52.6682 23.6345 52.8217 23.8992C52.9972 24.1639 53.0849 24.5278 53.0849 24.991C53.0849 25.8733 52.8765 26.557 52.4598 27.0423C51.5167 28.2113 50.4968 29.1708 49.4001 29.9207C48.3253 30.6706 47.0971 31.0456 45.7152 31.0456C44.5528 31.0456 43.6096 30.6265 42.8858 29.7883C41.6356 30.6044 40.3305 31.0235 38.9707 31.0456C38.6855 35.3025 38.0385 38.8536 37.0295 41.6989C36.0206 44.5663 34.5401 46 32.588 46C31.4036 46 30.5262 45.5699 29.956 44.7097C29.3857 43.8495 29.1005 42.6584 29.1005 41.1365C29.1005 38.9749 29.5941 36.4495 30.5811 33.56C31.5681 30.6927 33.0925 27.5275 35.1542 24.0646C35.1542 20.8444 35.1323 18.6056 35.0884 17.3484C35.0665 16.7087 35.3187 16.2014 35.8451 15.8265C36.3715 15.4515 37.0295 15.264 37.8191 15.264C38.2798 15.264 38.6088 15.3633 38.8062 15.5618C39.0255 15.7382 39.1461 16.1022 39.1681 16.6536C39.1681 17.205 39.179 17.613 39.201 17.8777C39.9028 16.9955 40.5937 16.3668 41.2737 15.9919C41.9536 15.5949 42.6774 15.3964 43.4451 15.3964C44.6734 15.3964 45.6714 15.8926 46.439 16.8852C47.2287 17.8777 47.6235 19.1791 47.6235 20.7892C47.6235 21.9582 47.437 23.0941 47.0642 24.197C46.6913 25.2998 46.1758 26.3034 45.5178 27.2077C45.9784 27.34 46.3623 27.4062 46.6693 27.4062C47.3932 27.4062 48.0841 27.1415 48.7421 26.6122C49.4001 26.0828 50.2445 25.2005 51.2754 23.9654C51.5386 23.6566 51.8347 23.5022 52.1637 23.5022ZM39.1352 27.8694C39.9248 27.693 40.6486 27.2628 41.3066 26.5791C41.9865 25.8733 42.5239 25.0131 42.9187 23.9985C43.3135 22.9618 43.5109 21.881 43.5109 20.7561C43.5109 20.0944 43.3793 19.5981 43.1161 19.2673C42.8529 18.9144 42.502 18.7379 42.0633 18.7379C41.2737 18.7379 40.3196 19.5761 39.201 21.2524C39.179 22.2229 39.1681 23.6456 39.1681 25.5204C39.1681 26.535 39.1571 27.318 39.1352 27.8694ZM32.8512 42.7577C33.4434 42.7577 33.9369 41.4563 34.3317 38.8536C34.7265 36.273 34.9787 33.0527 35.0884 29.1928C34.1453 31.3985 33.3995 33.5049 32.8512 35.512C32.3028 37.5192 32.0287 39.2065 32.0287 40.5741C32.0287 41.2799 32.1164 41.8203 32.2919 42.1952C32.4454 42.5702 32.6319 42.7577 32.8512 42.7577Z" fill="#101828"/>
<path d="M53.6479 13.2789C52.7267 13.2789 52.0358 13.0694 51.5752 12.6503C51.1146 12.2092 50.8843 11.6026 50.8843 10.8306C50.8843 10.0586 51.1804 9.41899 51.7726 8.91169C52.3867 8.38232 53.1434 8.11765 54.0427 8.11765C54.8543 8.11765 55.5123 8.31616 56.0167 8.71318C56.5212 9.1102 56.7734 9.67264 56.7734 10.4005C56.7734 11.2828 56.4883 11.9886 55.918 12.518C55.3478 13.0253 54.591 13.2789 53.6479 13.2789ZM53.3847 31.0456C51.959 31.0456 50.9172 30.5383 50.2592 29.5237C49.6231 28.5091 49.3051 27.1636 49.3051 25.4873C49.3051 24.4947 49.4257 23.2265 49.667 21.6825C49.9302 20.1165 50.2592 18.6607 50.654 17.3153C50.8514 16.6095 51.1146 16.1242 51.4436 15.8595C51.7726 15.5949 52.299 15.4625 53.0228 15.4625C54.1414 15.4625 54.7007 15.8375 54.7007 16.5874C54.7007 17.1388 54.4923 18.4181 54.0756 20.4253C53.5492 22.8515 53.286 24.4947 53.286 25.3549C53.286 26.0166 53.3737 26.5239 53.5492 26.8769C53.7247 27.2298 54.0208 27.4062 54.4375 27.4062C54.8323 27.4062 55.3258 27.1305 55.918 26.5791C56.5102 26.0277 57.2999 25.1564 58.2869 23.9654C58.5501 23.6566 58.8462 23.5022 59.1752 23.5022C59.4603 23.5022 59.6796 23.6345 59.8332 23.8992C60.0086 24.1639 60.0964 24.5278 60.0964 24.991C60.0964 25.8733 59.888 26.557 59.4713 27.0423C57.2998 29.7111 55.271 31.0456 53.3847 31.0456Z" fill="#101828"/>
<path d="M71.0114 23.5022C71.2966 23.5022 71.5159 23.6345 71.6694 23.8992C71.8449 24.1639 71.9326 24.5278 71.9326 24.991C71.9326 25.8733 71.7243 26.557 71.3075 27.0423C70.496 28.0348 69.3445 28.9502 67.853 29.7883C66.3834 30.6265 64.8042 31.0456 63.1153 31.0456C60.8123 31.0456 59.0247 30.417 57.7526 29.1597C56.4804 27.9025 55.8444 26.1821 55.8444 23.9985C55.8444 22.4765 56.1624 21.0649 56.7985 19.7636C57.4345 18.4402 58.3119 17.3925 59.4305 16.6205C60.571 15.8485 61.8542 15.4625 63.2798 15.4625C64.552 15.4625 65.5719 15.8485 66.3396 16.6205C67.1072 17.3704 67.4911 18.3961 67.4911 19.6974C67.4911 21.2193 66.9427 22.5317 65.8461 23.6345C64.7713 24.7153 62.9399 25.5755 60.3517 26.2152C60.9 27.2298 61.9419 27.7371 63.4772 27.7371C64.4642 27.7371 65.5829 27.3952 66.8331 26.7114C68.1052 26.0056 69.2019 25.0903 70.1231 23.9654C70.3863 23.6566 70.6824 23.5022 71.0114 23.5022ZM62.7205 18.7049C61.909 18.7049 61.2181 19.1791 60.6478 20.1275C60.0995 21.0759 59.8253 22.2229 59.8253 23.5684V23.6345C61.1194 23.3257 62.1393 22.8625 62.885 22.245C63.6308 21.6274 64.0036 20.9105 64.0036 20.0944C64.0036 19.6753 63.883 19.3445 63.6417 19.1019C63.4224 18.8372 63.1153 18.7049 62.7205 18.7049Z" fill="#101828"/>
<path d="M81.4489 19.9952C81.9314 19.9952 82.3372 20.1716 82.6662 20.5245C83.0171 20.8554 83.1926 21.2745 83.1926 21.7818C83.1926 22.0685 83.1268 22.3773 82.9952 22.7081C82.6443 23.5242 82.1508 24.208 81.5147 24.7594C80.8786 25.3108 80.1767 25.5865 79.4091 25.5865C78.7949 25.5865 78.2685 25.366 77.8298 24.9248C77.4131 24.4837 77.2047 23.8882 77.2047 23.1382C77.2047 22.7192 77.2267 22.267 77.2705 21.7818C77.3144 21.4289 77.3363 21.1862 77.3363 21.0539C77.3363 20.8774 77.2925 20.7451 77.2047 20.6569C77.1389 20.5686 77.0512 20.5245 76.9415 20.5245C76.6345 20.5245 76.2177 20.8995 75.6913 21.6494C75.1649 22.3773 74.6385 23.3478 74.1121 24.5609C73.5857 25.774 73.158 27.0533 72.829 28.3988C72.5877 29.4575 72.3136 30.1633 72.0065 30.5162C71.6994 30.8691 71.1949 31.0456 70.4931 31.0456C69.6596 31.0456 69.0674 30.6044 68.7164 29.7222C68.3874 28.8399 68.2229 27.4283 68.2229 25.4873C68.2229 22.6199 68.6287 19.8959 69.4403 17.3153C69.6377 16.6756 69.9557 16.2124 70.3944 15.9257C70.855 15.6169 71.491 15.4625 72.3026 15.4625C72.7413 15.4625 73.0483 15.5177 73.2238 15.6279C73.3993 15.7382 73.487 15.9478 73.487 16.2566C73.487 16.6095 73.3225 17.4035 72.9935 18.6387C72.7742 19.521 72.5987 20.2929 72.4671 20.9546C72.3355 21.6163 72.2258 22.4324 72.1381 23.4029C72.8619 21.5061 73.6734 19.9621 74.5727 18.771C75.472 17.58 76.3493 16.7308 77.2047 16.2235C78.0602 15.7162 78.8388 15.4625 79.5407 15.4625C80.1767 15.4625 80.6593 15.65 80.9883 16.025C81.3392 16.3779 81.5147 16.9072 81.5147 17.613C81.5147 18.0321 81.3941 18.8262 81.1528 19.9952H81.4489Z" fill="#101828"/>
</svg>
