<svg width="24" height="24" viewBox="0 0 24 24" fill="none" xmlns="http://www.w3.org/2000/svg">
<path d="M10.6836 6L9.32364 11.5723L9.07636 10.2771C9.57091 10.2771 9.97273 10.4277 10.2818 10.7289C10.5909 11.01 10.7455 11.3916 10.7455 11.8735C10.7455 12.3554 10.5909 12.747 10.2818 13.0482C9.97273 13.3494 9.59152 13.5 9.13818 13.5C8.64364 13.5 8.24182 13.3494 7.93273 13.0482C7.64424 12.7269 7.5 12.3353 7.5 11.8735C7.5 11.6928 7.5103 11.5321 7.53091 11.3916C7.55152 11.251 7.59273 11.0803 7.65455 10.8795C7.71636 10.6787 7.79879 10.4378 7.90182 10.1566L9.2 6H10.6836ZM15.9382 6L14.5782 11.5723L14.3309 10.2771C14.8255 10.2771 15.2273 10.4277 15.5364 10.7289C15.8455 11.01 16 11.3916 16 11.8735C16 12.3554 15.8455 12.747 15.5364 13.0482C15.2273 13.3494 14.8461 13.5 14.3927 13.5C13.8982 13.5 13.4964 13.3494 13.1873 13.0482C12.8988 12.7269 12.7545 12.3353 12.7545 11.8735C12.7545 11.6928 12.7648 11.5321 12.7855 11.3916C12.8061 11.251 12.8473 11.0803 12.9091 10.8795C12.9709 10.6787 13.0533 10.4378 13.1564 10.1566L14.4545 6H15.9382Z" fill="black"/>
<path d="M21 15C21 15.5304 20.7893 16.0391 20.4142 16.4142C20.0391 16.7893 19.5304 17 19 17H7L3 21V5C3 4.46957 3.21071 3.96086 3.58579 3.58579C3.96086 3.21071 4.46957 3 5 3H19C19.5304 3 20.0391 3.21071 20.4142 3.58579C20.7893 3.96086 21 4.46957 21 5V15Z" stroke="#101828" stroke-width="2" stroke-linecap="round" stroke-linejoin="round"/>
</svg>
