<svg width="13" height="12" viewBox="0 0 13 12" fill="none" xmlns="http://www.w3.org/2000/svg">
<path d="M10 5.5H3C2.44772 5.5 2 5.94772 2 6.5V10C2 10.5523 2.44772 11 3 11H10C10.5523 11 11 10.5523 11 10V6.5C11 5.94772 10.5523 5.5 10 5.5Z" stroke="#475467" stroke-width="1.5" stroke-linecap="round" stroke-linejoin="round"/>
<path d="M4 5.5V3.5C4 2.83696 4.26339 2.20107 4.73223 1.73223C5.20107 1.26339 5.83696 1 6.5 1C7.16304 1 7.79893 1.26339 8.26777 1.73223C8.73661 2.20107 9 2.83696 9 3.5V5.5" stroke="#475467" stroke-width="1.5" stroke-linecap="round" stroke-linejoin="round"/>
</svg>
