<svg width="25" height="24" viewBox="0 0 25 24" fill="none" xmlns="http://www.w3.org/2000/svg">
<path d="M9.86727 4L7.14727 15.1446L6.65273 12.5542C7.64182 12.5542 8.44545 12.8554 9.06364 13.4578C9.68182 14.0201 9.99091 14.7831 9.99091 15.747C9.99091 16.7108 9.68182 17.494 9.06364 18.0964C8.44545 18.6988 7.68303 19 6.77636 19C5.78727 19 4.98364 18.6988 4.36545 18.0964C3.78848 17.4538 3.5 16.6707 3.5 15.747C3.5 15.3855 3.52061 15.0643 3.56182 14.7831C3.60303 14.502 3.68545 14.1606 3.80909 13.759C3.93273 13.3574 4.09758 12.8755 4.30364 12.3133L6.9 4H9.86727ZM20.3764 4L17.6564 15.1446L17.1618 12.5542C18.1509 12.5542 18.9545 12.8554 19.5727 13.4578C20.1909 14.0201 20.5 14.7831 20.5 15.747C20.5 16.7108 20.1909 17.494 19.5727 18.0964C18.9545 18.6988 18.1921 19 17.2855 19C16.2964 19 15.4927 18.6988 14.8745 18.0964C14.2976 17.4538 14.0091 16.6707 14.0091 15.747C14.0091 15.3855 14.0297 15.0643 14.0709 14.7831C14.1121 14.502 14.1945 14.1606 14.3182 13.759C14.4418 13.3574 14.6067 12.8755 14.8127 12.3133L17.4091 4H20.3764Z" fill="black"/>
</svg>
