<svg width="30" height="30" viewBox="0 0 30 30" fill="none" xmlns="http://www.w3.org/2000/svg">
<path d="M8.83317 28.3334H4.83317C4.12593 28.3334 3.44765 28.0525 2.94755 27.5524C2.44746 27.0523 2.1665 26.374 2.1665 25.6667V16.3334C2.1665 15.6262 2.44746 14.9479 2.94755 14.4478C3.44765 13.9477 4.12593 13.6667 4.83317 13.6667H8.83317M18.1665 11.0001V5.66675C18.1665 4.60588 17.7451 3.58847 16.9949 2.83832C16.2448 2.08818 15.2274 1.66675 14.1665 1.66675L8.83317 13.6667V28.3334H23.8732C24.5163 28.3407 25.1403 28.1153 25.6304 27.6988C26.1204 27.2822 26.4434 26.7026 26.5398 26.0667L28.3798 14.0667C28.4378 13.6846 28.4121 13.2943 28.3043 12.9231C28.1965 12.5518 28.0093 12.2085 27.7556 11.9168C27.502 11.6251 27.1879 11.392 26.8353 11.2337C26.4826 11.0754 26.0997 10.9957 25.7132 11.0001H18.1665Z" stroke="#E7DACD" stroke-width="3" stroke-linecap="round" stroke-linejoin="round"/>
</svg>
